<mxfile host="app.diagrams.net" modified="2021-02-07T05:55:16.648Z" agent="5.0 (Macintosh; Intel Mac OS X 10_15_7) AppleWebKit/537.36 (KHTML, like Gecko) Chrome/88.0.4324.150 Safari/537.36" etag="d_lKaWsaQYyc8IDYUdJr" version="14.2.9" type="github">
  <diagram name="Page-1" id="13e1069c-82ec-6db2-03f1-153e76fe0fe0">
    <mxGraphModel dx="740" dy="433" grid="1" gridSize="10" guides="1" tooltips="1" connect="1" arrows="1" fold="1" page="1" pageScale="1" pageWidth="1100" pageHeight="850" background="#ffffff" math="0" shadow="0">
      <root>
        <mxCell id="0" />
        <mxCell id="1" parent="0" />
        <mxCell id="7baba1c4bc27f4b0-2" value="MQ 集群" style="shape=umlLifeline;perimeter=lifelinePerimeter;whiteSpace=wrap;html=1;container=1;collapsible=0;recursiveResize=0;outlineConnect=0;rounded=1;shadow=0;comic=0;labelBackgroundColor=none;strokeWidth=1;fontFamily=Verdana;fontSize=12;align=center;" parent="1" vertex="1">
          <mxGeometry x="267" y="80" width="100" height="360" as="geometry" />
        </mxCell>
        <mxCell id="7baba1c4bc27f4b0-10" value="" style="html=1;points=[];perimeter=orthogonalPerimeter;rounded=0;shadow=0;comic=0;labelBackgroundColor=none;strokeWidth=1;fontFamily=Verdana;fontSize=12;align=center;" parent="7baba1c4bc27f4b0-2" vertex="1">
          <mxGeometry x="45" y="150" width="10" height="60" as="geometry" />
        </mxCell>
        <mxCell id="7baba1c4bc27f4b0-3" value="消息消费者&lt;br&gt;服务器集群" style="shape=umlLifeline;perimeter=lifelinePerimeter;whiteSpace=wrap;html=1;container=1;collapsible=0;recursiveResize=0;outlineConnect=0;rounded=1;shadow=0;comic=0;labelBackgroundColor=none;strokeWidth=1;fontFamily=Verdana;fontSize=12;align=center;" parent="1" vertex="1">
          <mxGeometry x="428" y="80" width="100" height="360" as="geometry" />
        </mxCell>
        <mxCell id="7baba1c4bc27f4b0-13" value="" style="html=1;points=[];perimeter=orthogonalPerimeter;rounded=0;shadow=0;comic=0;labelBackgroundColor=none;strokeWidth=1;fontFamily=Verdana;fontSize=12;align=center;" parent="7baba1c4bc27f4b0-3" vertex="1">
          <mxGeometry x="45" y="178" width="10" height="72" as="geometry" />
        </mxCell>
        <mxCell id="7baba1c4bc27f4b0-8" value="微服务集群" style="shape=umlLifeline;perimeter=lifelinePerimeter;whiteSpace=wrap;html=1;container=1;collapsible=0;recursiveResize=0;outlineConnect=0;rounded=1;shadow=0;comic=0;labelBackgroundColor=none;strokeWidth=1;fontFamily=Verdana;fontSize=12;align=center;" parent="1" vertex="1">
          <mxGeometry x="100" y="80" width="100" height="360" as="geometry" />
        </mxCell>
        <mxCell id="7baba1c4bc27f4b0-9" value="" style="html=1;points=[];perimeter=orthogonalPerimeter;rounded=0;shadow=0;comic=0;labelBackgroundColor=none;strokeWidth=1;fontFamily=Verdana;fontSize=12;align=center;" parent="7baba1c4bc27f4b0-8" vertex="1">
          <mxGeometry x="45" y="100" width="10" height="220" as="geometry" />
        </mxCell>
        <mxCell id="0MR_a8uCAwhIg2PYSBuh-2" value="创建任务&lt;br&gt;通知快递员" style="html=1;verticalAlign=bottom;endArrow=block;labelBackgroundColor=none;fontFamily=Verdana;fontSize=12;elbow=vertical;edgeStyle=orthogonalEdgeStyle;curved=1;entryX=1;entryY=0.286;entryPerimeter=0;exitX=1.038;exitY=0.345;exitPerimeter=0;" edge="1" parent="1">
          <mxGeometry relative="1" as="geometry">
            <mxPoint x="150.0033333333335" y="180" as="sourcePoint" />
            <mxPoint x="155.0033333333335" y="218.33333333333337" as="targetPoint" />
            <Array as="points">
              <mxPoint x="204.67000000000002" y="180" />
              <mxPoint x="204.67000000000002" y="218" />
            </Array>
          </mxGeometry>
        </mxCell>
        <mxCell id="0MR_a8uCAwhIg2PYSBuh-3" value="快递员抢单请求" style="html=1;verticalAlign=bottom;endArrow=block;entryX=0;entryY=0;labelBackgroundColor=none;fontFamily=Verdana;fontSize=12;edgeStyle=elbowEdgeStyle;elbow=vertical;" edge="1" parent="1">
          <mxGeometry relative="1" as="geometry">
            <mxPoint x="160" y="247" as="sourcePoint" />
            <mxPoint x="310" y="247.00000000000023" as="targetPoint" />
          </mxGeometry>
        </mxCell>
        <mxCell id="0MR_a8uCAwhIg2PYSBuh-4" value="请求分发处理" style="html=1;verticalAlign=bottom;endArrow=block;entryX=0;entryY=0;labelBackgroundColor=none;fontFamily=Verdana;fontSize=12;edgeStyle=elbowEdgeStyle;elbow=vertical;" edge="1" parent="1">
          <mxGeometry relative="1" as="geometry">
            <mxPoint x="322" y="272" as="sourcePoint" />
            <mxPoint x="472" y="272.0000000000002" as="targetPoint" />
          </mxGeometry>
        </mxCell>
        <mxCell id="0MR_a8uCAwhIg2PYSBuh-5" value="消费处理请求" style="html=1;verticalAlign=bottom;endArrow=open;dashed=1;endSize=8;labelBackgroundColor=none;fontFamily=Verdana;fontSize=12;" edge="1" parent="1">
          <mxGeometry x="0.28" y="-3" relative="1" as="geometry">
            <mxPoint x="157.5" y="303" as="targetPoint" />
            <mxPoint x="470" y="303" as="sourcePoint" />
            <mxPoint as="offset" />
          </mxGeometry>
        </mxCell>
        <mxCell id="0MR_a8uCAwhIg2PYSBuh-6" value="客户端&lt;br&gt;轮询抢单结果" style="html=1;verticalAlign=bottom;endArrow=block;labelBackgroundColor=none;fontFamily=Verdana;fontSize=12;elbow=vertical;edgeStyle=orthogonalEdgeStyle;curved=1;entryX=1;entryY=0.286;entryPerimeter=0;exitX=1.038;exitY=0.345;exitPerimeter=0;" edge="1" parent="1">
          <mxGeometry relative="1" as="geometry">
            <mxPoint x="145.30333333333357" y="330" as="sourcePoint" />
            <mxPoint x="150.30333333333357" y="368.33333333333337" as="targetPoint" />
            <Array as="points">
              <mxPoint x="199.97000000000003" y="330" />
              <mxPoint x="199.97000000000003" y="368" />
            </Array>
          </mxGeometry>
        </mxCell>
      </root>
    </mxGraphModel>
  </diagram>
</mxfile>
